<?xml version="1.0" encoding="UTF-8" standalone="no"?>
<!-- Created with Inkscape (http://www.inkscape.org/) -->

<svg
   version="1.1"
   id="svg2"
   width="2306.8601"
   height="400"
   viewBox="0 0 2306.8601 400"
   sodipodi:docname="logo.svg"
   inkscape:export-filename="../../Documents/Git/MyAudit/myaudit/static/logo_C500.png"
   inkscape:export-xdpi="120"
   inkscape:export-ydpi="120"
   inkscape:version="1.2.2 (b0a8486541, 2022-12-01)"
   xmlns:inkscape="http://www.inkscape.org/namespaces/inkscape"
   xmlns:sodipodi="http://sodipodi.sourceforge.net/DTD/sodipodi-0.dtd"
   xmlns="http://www.w3.org/2000/svg"
   xmlns:svg="http://www.w3.org/2000/svg">
  <defs
     id="defs6" />
  <sodipodi:namedview
     id="namedview4"
     pagecolor="#ffffff"
     bordercolor="#000000"
     borderopacity="0.25"
     inkscape:showpageshadow="2"
     inkscape:pageopacity="0.0"
     inkscape:pagecheckerboard="0"
     inkscape:deskcolor="#d1d1d1"
     showgrid="false"
     inkscape:zoom="0.32179512"
     inkscape:cx="936.93155"
     inkscape:cy="779.9994"
     inkscape:window-width="1596"
     inkscape:window-height="861"
     inkscape:window-x="0"
     inkscape:window-y="18"
     inkscape:window-maximized="1"
     inkscape:current-layer="g8" />
  <g
     inkscape:groupmode="layer"
     inkscape:label="Image"
     id="g8">
    <path
       style="fill:#ffffff;fill-opacity:1;stroke-width:0.691352"
       d="m 342.27973,379.33962 c 10.61162,-2.18643 17.04842,-10.35533 16.36391,-20.76743 -0.50044,-7.61225 -0.0464,-6.93564 -41.52995,-61.89989 -9.31802,-12.3461 -20.53174,-27.28752 -24.91937,-33.20316 -43.91741,-9.38755 -3.14372,28.90635 -37.98361,2.6504 -1.39856,-0.57436 1.32048,4.18813 13.34366,23.37223 6.17524,9.85309 13.01492,20.86031 15.19926,24.46039 2.18436,3.60008 6.61701,10.73132 9.85035,15.8472 3.23335,5.1159 9.8487,15.77585 14.70081,23.68876 11.99908,19.56836 15.36552,23.08045 24.44702,25.50438 4.70966,1.25703 5.91826,1.29692 10.5279,0.34712 z M 168.7468,342.57044 c 2.86658,-8.21721 3.28526,-7.66281 -8.35477,-11.06191 -57.90664,-16.90945 -98.60888,-51.43614 -117.907928,-100.01819 -2.029066,-5.10775 -11.518771,-5.40486 -16.590096,-0.5195 -1.207804,1.16352 9.16831,24.52708 15.127425,34.06166 25.271431,40.43471 64.722899,68.06461 116.595809,81.658 4.76918,1.24981 8.74815,2.19903 8.84218,2.10949 0.0941,-0.0897 1.12336,-2.89288 2.28738,-6.22955 z m 64.13651,-14.85829 c 12.19932,-1.13191 30.1824,-4.48166 32.84956,-6.11889 4.11693,-2.5272 -5.94553,-13.58237 -11.27892,-12.39154 -20.02156,4.47013 -51.14068,5.19596 -66.70332,1.55576 -1.28234,-0.29999 -1.63594,0.38565 -3.4283,6.64751 -2.35841,8.23931 -2.67622,7.77851 6.16105,8.93315 16.48408,2.1537 29.46358,2.57435 42.39993,1.37401 z m -65.00035,-17.02948 c 2.80955,-6.71455 2.80955,-6.71455 -6.32944,-10.02316 -47.09882,-17.05133 -78.834651,-47.15558 -92.034226,-87.30271 -2.210872,-6.72446 -1.522529,-6.4758 -10.753805,-3.88526 -6.657189,1.86817 -6.737031,2.25704 -2.838524,13.82884 13.850766,41.11263 48.905575,73.29626 99.956035,91.76888 9.15096,3.31131 8.71171,3.47181 11.99996,-4.38659 z m 75.2828,-13.82771 c 9.31536,-1.70806 8.86951,-0.82586 4.59494,-9.0913 -3.40124,-6.57678 -3.73566,-6.98441 -5.43551,-6.62482 -11.38267,2.40823 -21.95618,2.78727 -44.77495,1.60479 -2.61134,-0.13525 -8.47658,12.18222 -6.72051,14.11365 2.05026,2.25506 40.0343,2.25334 52.33603,0 z m -59.59757,-20.84373 c 1.17239,-2.9103 0.9948,-4.08865 -0.61616,-4.08865 -12.42562,0 -45.20946,-17.9391 -63.14124,-34.55051 -5.17483,-4.79377 -8.04734,-6.28308 -9.04042,-4.68705 -0.2181,0.35049 0.0879,0.45262 0.68003,0.2269 0.59212,-0.22566 1.07658,-0.10031 1.07658,0.27869 0,1.15822 -2.19153,1.60202 -3.33879,0.67605 -3.7091,-2.99354 2.72339,5.05335 8.94067,11.18456 14.45219,14.25216 32.26908,24.40175 55.03269,31.34978 9.6002,2.93022 9.06108,2.95041 10.40664,-0.38977 z m 139.11482,-12.87351 c 6.55231,-6.56978 14.45217,-15.95298 16.83831,-20.00008 3.60307,-6.11104 -13.44453,-10.1547 -17.76968,-4.21494 -2.21284,3.03892 -6.84336,8.45517 -10.29007,12.03616 -6.26676,6.51088 -6.26676,6.51088 -2.18814,11.72033 2.24324,2.86524 4.3892,5.65206 4.76878,6.19295 1.13346,1.6151 1.65798,1.26703 8.6408,-5.73442 z m 53.2366,-18.10392 C 438.89591,130.71464 338.08997,7.2846178 192.99576,21.05599 c -21.8485,2.07371 -63.4363,13.67717 -70.60722,19.700212 -0.15182,0.127535 3.5969,7.787588 4.5271,9.250568 0.10135,0.159366 2.91445,-0.742055 6.25141,-2.003162 150.58572,-56.9082197 293.08921,58.458462 229.08385,185.459452 -2.30903,4.58161 -4.03109,8.49631 -3.8268,8.69915 6.42179,6.37844 14.80561,7.75445 17.49551,2.87159 z m -104.51913,-6.29576 c 23.66266,-28.00926 36.11118,-59.21804 34.6072,-86.76139 -0.3525,-6.45582 -1.91123,-13.92628 -1.99941,-9.58283 -0.0164,0.8058 -0.7205,0.98321 -3.14276,0.79188 -2.503,-0.19773 -3.12162,-0.0284 -3.12162,0.85632 0,0.82157 -0.68616,1.1029 -2.69007,1.1029 -1.47953,0 -3.8545,0.48318 -5.27771,1.07388 -3.02955,1.25723 -2.94338,1.30452 -3.635,-1.99353 -0.34661,-1.65301 -0.55751,1.29175 -0.59507,8.30899 -0.12767,23.85687 -10.71876,47.51019 -30.68752,68.5351 -12.36789,13.02205 -85.54455,-0.029 -105.52385,-18.82021 -1.25072,-1.17636 -1.57328,-1.28329 -1.23574,-0.40971 0.30299,0.78431 0.11573,1.18222 -0.55618,1.18222 -0.55709,0 -1.40279,0.62011 -1.87935,1.378 -0.59975,0.95387 -1.61771,1.37803 -3.30749,1.37803 -1.68976,0 -2.7077,0.42409 -3.30747,1.378 -0.47656,0.75792 -1.44989,1.37804 -2.16303,1.37804 -1.47075,0 -3.1643,1.69966 -2.5989,2.6083 0.45615,0.73312 -1.66528,0.6408 -2.91578,-0.12679 -0.49623,-0.30465 -0.74076,-0.97179 -0.54343,-1.48255 0.23089,-0.59759 3.9e-4,-0.79216 -0.64639,-0.54563 -0.55287,0.2107 -1.00522,0.0731 -1.00522,-0.30585 0,-0.37896 -0.54627,-0.8767 -1.21397,-1.10601 -1.3955,-0.4794 5.38145,6.00067 8.0849,7.7307 0.98969,0.63327 4.11498,2.79303 6.94514,4.79951 20.37747,14.44632 54.11533,24.71379 89.54469,27.25106 24.77628,1.77434 31.30767,0.32595 38.86403,-8.6184 z m 79.02068,-17.18074 c 11.85645,-25.34612 14.73951,-54.30608 7.9371,-79.72722 -2.91395,-10.88967 -1.89199,-10.12417 -9.776,-7.32273 -3.73375,1.32668 -7.1311,2.5297 -7.54967,2.67322 -0.51444,0.17653 -0.2004,2.56932 0.96925,7.3855 4.85688,19.99877 1.65692,48.50817 -7.93408,70.6875 -1.36911,3.16606 -2.33333,5.91142 -2.1427,6.10076 0.41673,0.41388 14.5449,6.4388 15.1441,6.45809 0.23079,0.007 1.7392,-2.80731 3.352,-6.25512 z m -235.8021,-10.60996 c 2.12573,0.40664 1.86482,-0.10678 -5.92581,-11.66148 -10.848851,-16.09055 -19.058243,-33.52731 -19.058243,-40.47968 0,-4.65923 5.866537,-15.0353 7.859899,-13.90175 0.44621,0.25376 0.576494,0.20431 0.289512,-0.11001 -0.699686,-0.76611 1.55632,-3.1797 2.455922,-2.62749 0.38949,0.23911 0.51496,0.1242 0.27882,-0.25532 -0.23617,-0.37953 0.57292,-1.5901 1.79794,-2.69026 2.22732,-2.00019 2.22732,-2.00019 0.49561,0.0669 -1.73173,2.06705 -1.73173,2.06705 0.17594,0.39667 1.04922,-0.91873 1.90768,-2.08908 1.90768,-2.60086 0,-0.51173 0.71518,-1.20053 1.58933,-1.53064 0.87411,-0.33012 2.03935,-1.17503 2.58939,-1.8777 0.87339,-1.11571 0.78192,-1.10296 -0.72219,0.10054 -1.7223,1.37801 -1.7223,1.37801 -0.44315,-0.12579 1.24671,-1.46565 3.67467,-1.49096 2.76485,-0.029 -0.25138,0.40403 0.36172,0.13902 1.36243,-0.5889 1.00072,-0.72795 2.14061,-2.21089 2.53312,-3.29547 0.51159,-1.41358 1.03267,-1.85027 1.84043,-1.54242 0.79644,0.30357 1.01283,0.13436 0.73804,-0.57676 -0.26032,-0.67385 -0.058,-0.88023 0.61245,-0.62467 0.5507,0.20987 0.82853,0.65918 0.61744,0.99844 -0.21107,0.33927 -0.0533,0.61681 0.35085,0.61681 0.93039,0 0.95797,-1.15959 0.0409,-1.72253 -0.38152,-0.23419 -0.6937,-0.75556 -0.6937,-1.1585 0,-0.5135 0.2631,-0.51586 0.87935,-0.007 0.63566,0.52393 1.35657,0.36064 2.60138,-0.58938 0.94709,-0.72277 2.11221,-1.32104 2.58912,-1.32943 0.47691,-0.007 0.86712,-0.31572 0.86712,-0.68275 0,-0.36704 -0.53606,-0.46309 -1.19124,-0.21332 -1.04254,0.39734 -1.06741,0.32233 -0.19919,-0.60082 0.9092,-0.96673 3.06071,-0.26354 2.42474,0.7925 -0.11418,0.18948 0.51996,0.38776 1.40904,0.44068 1.0202,0.0607 1.49581,-0.21627 1.28925,-0.75081 -0.54585,-1.41293 1.76597,-2.92428 2.61966,-1.7126 0.51204,0.72679 0.58965,0.499 0.29258,-0.8587 -0.32745,-1.49652 -0.10794,-1.94136 1.15519,-2.33953 0.85775,-0.27036 1.94501,-0.98907 2.41614,-1.59713 0.75573,-0.97528 0.93862,-0.98376 1.55287,-0.072 0.57915,0.85969 0.69805,0.79774 0.70687,-0.36818 0.006,-0.84833 0.90074,-1.91593 2.26514,-2.70409 1.23997,-0.71631 3.56277,-2.35574 5.16175,-3.64329 1.59899,-1.28747 3.10778,-2.29267 3.35288,-2.23376 0.24508,0.0585 0.65372,-0.12346 0.90808,-0.40535 0.25437,-0.2818 0.0723,-0.28932 -0.40465,-0.0166 -0.47694,0.27265 -0.86713,0.17819 -0.86713,-0.20979 0,-0.38798 0.62065,-1.03531 1.37921,-1.43851 0.75855,-0.40329 1.5728,-1.49936 1.80943,-2.4358 0.23666,-0.93648 0.86467,-1.70266 1.39561,-1.70266 0.53093,0 0.96533,-0.45104 0.96533,-1.00225 0,-1.29836 3.23334,-4.50982 4.54055,-4.50982 0.89153,0 1.36502,-1.311888 1.07466,-2.977481 -0.80309,-4.60694 -0.50859,-8.240855 0.69314,-8.552974 0.7187,-0.186652 1.16448,-0.567937 0.99065,-0.847336 -2.38437,-3.831921 107.17004,-6.803189 117.04203,-3.1744 6.21414,2.284274 12.68902,9.318081 20.65899,22.442271 4.59663,7.5693 13.85643,26.00907 13.85643,27.59344 0,0.57657 0.37973,0.42066 1.01848,-0.41815 0.56017,-0.7356 1.02842,-1.06694 1.04054,-0.73635 0.0117,0.33067 0.55023,0.17563 1.19579,-0.3445 1.01154,-0.81497 1.09333,-0.80284 0.59191,0.0881 -0.43278,0.76881 -0.37325,0.84343 0.23245,0.29136 3.24935,-2.96142 -12.92525,-33.8929 -23.85399,-45.617224 -11.55905,-12.400509 -32.06024,-14.161547 -110.03475,-9.452106 -9.29896,0.561688 -19.28858,1.024359 -22.19916,1.028212 -5.29199,0.0069 -5.29199,0.0069 -6.17888,2.246304 -0.55733,1.407235 -12.81113,14.016108 -32.97804,33.933714 -41.676904,41.16162 -42.676043,42.88828 -35.284961,60.97733 6.614981,16.18966 24.829951,43.19684 26.788971,39.71991 0.32604,-0.57864 1.21218,-0.9336 1.96919,-0.78886 z m -85.162237,-6.60306 c 6.069847,-1.49185 6.069847,-1.49185 6.069847,-12.75215 0,-26.40552 6.883753,-50.29569 21.571461,-74.86447 4.281375,-7.16168 4.65528,-8.09992 3.2282,-8.10081 -0.476916,-2.8e-4 -2.846177,-0.93044 -5.265028,-2.06703 -6.024404,-2.83079 -5.637544,-3.03506 -11.41638,6.02938 -16.262464,25.50885 -23.543152,49.00884 -23.641308,76.30779 -0.0507,14.13954 0.419129,17.82072 2.207341,17.28886 0.646868,-0.19237 3.907459,-1.0211 7.245867,-1.84157 z m 188.882197,-7.20585 c 26.51237,-5.4393 43.90029,-27.64594 39.211,-50.07773 -5.08426,-24.32141 -37.67419,-38.61161 -66.28782,-29.06614 -2.92439,0.97557 -5.49963,1.59244 -5.72271,1.37086 -0.22309,-0.22159 -0.0314,-0.40287 0.42595,-0.40287 0.69249,0 1.99212,-0.50084 6.33661,-2.44192 0.19079,-0.0853 1.11056,-0.3979 2.04395,-0.6948 1.57991,-0.50256 1.60386,-0.57608 0.34683,-1.06465 -1.26364,-0.49121 -1.25277,-0.52801 0.16964,-0.57326 0.83593,-0.0269 1.68495,-0.31371 1.88669,-0.63796 0.20174,-0.32416 -0.48221,-0.47788 -1.51989,-0.34153 -1.88667,0.24788 -1.88667,0.24788 -0.064,-0.61633 1.00249,-0.47527 1.83066,-1.01918 1.8404,-1.20865 0.10043,-1.95356 2.83751,-4.82341 4.66128,-4.88741 2.04302,-0.0715 2.04937,-0.0831 0.34684,-0.62467 -1.71089,-0.54425 -1.71267,-0.55259 -0.13248,-0.62032 0.88095,-0.038 1.42892,-0.34643 1.21768,-0.68598 -2.19947,-3.53476 56.72635,-6.35113 60.89997,-2.91071 1.59707,1.31649 9.63464,14.1805 14.12371,22.6048 2.08248,3.90806 3.84634,7.10558 3.91969,7.10558 1.94965,0 9.75715,-4.33038 9.57376,-5.31001 -0.66798,-3.5679 -15.95293,-30.771361 -19.31306,-34.372536 -2.39254,-2.56416 -48.93243,-2.339052 -94.45791,0.456871 -12.02894,0.738754 -12.02894,0.738754 -14.84861,3.765089 -1.55084,1.664518 -3.16147,2.833075 -3.57923,2.596751 -0.41774,-0.236278 -0.5364,-0.184112 -0.26366,0.115891 0.80981,0.891026 -0.84264,3.267904 -1.9725,2.837264 -0.56287,-0.21455 -0.85845,-0.12506 -0.65686,0.19899 0.20157,0.32397 -0.32311,1.17304 -1.16599,1.88686 -1.51358,1.28182 -1.51981,1.28087 -0.50391,-0.0802 0.95595,-1.28073 0.94171,-1.31028 -0.20214,-0.41856 -0.67692,0.52769 -1.07808,1.11101 -0.89153,1.29637 0.71687,0.71194 -1.14073,3.00531 -2.12913,2.62856 -0.56287,-0.21455 -0.85846,-0.12506 -0.65686,0.19899 0.20157,0.32398 -0.3231,1.17305 -1.16599,1.88686 -1.5136,1.28183 -1.51982,1.28088 -0.50392,-0.0802 0.95109,-1.27417 0.93767,-1.30725 -0.17775,-0.43868 -0.66347,0.51661 -1.05082,1.18924 -0.86073,1.49474 0.485,0.77947 -1.71844,2.83313 -2.51508,2.34407 -0.36022,-0.2211 -0.56917,-0.11515 -0.46434,0.23531 0.10493,0.35048 -9.07328,9.85586 -20.39582,21.12302 -23.6216,23.50596 -21.83944,19.45694 -14.85688,33.75463 7.99178,16.36426 17.88456,29.17812 20.58773,26.66673 0.92146,-0.85609 2.68987,-2.18133 3.92987,-2.94504 2.88162,-1.77481 2.87926,-1.79128 -1.09782,-7.68064 -5.19023,-7.68584 -8.20096,-13.08801 -11.21808,-20.12893 -2.72769,-6.36541 -3.70788,-10.07668 -1.68154,-6.3668 1.14482,2.0959 2.10888,2.58724 1.35198,0.68901 -0.85263,-2.13833 -1.00033,-3.66504 -0.31377,-3.24357 0.3678,0.22579 0.50249,0.67769 0.29926,1.00431 -0.20321,0.32659 -0.0522,0.78849 0.33554,1.02655 0.67313,0.41318 1.02809,-0.58938 0.72936,-2.06009 -0.077,-0.37895 0.0915,-0.45914 0.3743,-0.17824 0.28283,0.28091 0.93317,0.16543 1.44521,-0.25658 0.71373,-0.58834 0.93093,-0.50663 0.93093,0.35043 0,0.61486 -0.23411,1.0404 -0.52028,0.94566 -0.53509,-0.17715 -0.86711,0.3904 -0.86711,1.4822 0,0.34153 0.88696,-0.20105 1.97097,-1.20578 1.08405,-1.0047 3.6594,-2.41552 5.723,-3.13514 4.90751,-1.71142 12.98467,-5.82314 13.641,-6.94409 0.28405,-0.4852 2.15533,-1.57796 4.15836,-2.42849 2.00305,-0.85052 3.64191,-1.97325 3.64191,-2.49502 0,-0.86899 0.61589,-1.01059 5.37616,-1.23575 0.66767,-0.0318 1.15326,0.2785 1.07908,0.68902 -0.0742,0.41057 0.31731,0.74646 0.87,0.74646 0.8492,0 0.85956,-0.16908 0.0669,-1.09099 -1.79921,-2.09272 -2.10944,-3.18267 -0.50831,-1.7859 1.57281,1.37201 1.57281,1.37201 2.89401,-0.2486 1.86441,-2.28689 1.64792,-1.5675 -0.82107,2.72827 -1.17825,2.05007 -1.96221,3.16868 -1.74216,2.4858 0.24902,-0.77271 0.12331,-1.07161 -0.33294,-0.79152 -0.4032,0.24748 -0.5727,0.86506 -0.37674,1.37229 0.196,0.50726 -0.22527,2.56877 -0.93616,4.58109 -10.34785,29.29304 22.66661,56.62558 59.3151,49.10679 z m -22.51853,-8.27795 c -21.55299,-4.64248 -35.30561,-26.9149 -25.71688,-41.64855 0.85299,-1.31062 0.85741,-0.92272 0.0237,2.07159 -0.67027,2.40697 -0.67027,2.40697 0.74211,0.72098 1.19581,-1.42752 1.61622,-1.55952 2.74194,-0.86126 1.74756,1.084 2.08184,1.04033 1.59927,-0.20879 -0.27165,-0.70314 0.0376,-1.03352 0.967,-1.03352 1.75767,0 12.78528,-2.71819 13.6966,-3.37606 0.38154,-0.27547 3.03492,-1.38478 5.89641,-2.46524 2.86151,-1.08041 5.40535,-2.26868 5.653,-2.64054 0.24764,-0.37185 0.95001,-0.48561 1.56082,-0.2528 0.6421,0.24474 1.11501,0.0692 1.12115,-0.41637 0.007,-0.60438 0.17376,-0.58407 0.5929,0.0726 0.92069,1.4423 3.02815,-1.0072 2.47745,-2.87958 -0.4273,-1.45277 -0.41547,-1.45166 0.70528,0.0669 0.62694,0.84934 4.11383,3.01971 7.74863,4.82309 3.63482,1.80332 8.22341,4.70253 10.19692,6.44263 5.21293,4.59658 6.1811,4.99765 9.12031,3.77782 8.96134,-3.71897 1.80305,-14.77022 -13.50968,-20.8568 -2.09844,-0.83411 -3.19102,-1.53723 -2.42796,-1.5626 2.70421,-0.0899 3.2413,-1.01565 1.60275,-2.7625 -3.04342,-3.24468 7.95252,0.43917 14.73119,4.93523 32.38614,21.48047 1.47512,66.88495 -39.52281,58.05407 z M 68.523247,159.14965 C 81.153235,103.97576 125.28181,63.928833 182.07003,56.105261 c 6.06985,-0.836248 6.06985,-0.836248 6.06222,-4.645713 -0.0151,-7.582001 -0.46476,-8.71603 -3.35432,-8.461792 -45.16414,3.974132 -87.276478,28.943697 -110.745008,65.663624 -9.791248,15.31985 -21.157393,42.88228 -21.153793,51.29722 5.94e-4,1.98491 15.1843,1.19978 15.644118,-0.80895 z"
       id="path433"
       sodipodi:nodetypes="sssccsssssssscsscssssscssssssssssscscssccssssssssssssssssscssscsccsssssscssssssssssssssscscsscsscssscccsssssssssssssssssssssssscscssssccssssscsscscsssssssscsssssssssscssssccsssssccsssssssssscssssssccsssssssssssssscsssssssssssssssssssssssssscssscssssssssscsscsssssssssssssssccsssccccsscscc" />
    <text
       xml:space="preserve"
       style="font-size:503.129px;font-family:'Latin Modern Mono';-inkscape-font-specification:'Latin Modern Mono';text-orientation:upright;fill:#176abe;fill-opacity:1;stroke:#2c3e50;stroke-width:20;stroke-dasharray:none;stroke-opacity:1"
       x="431.95477"
       y="362.21133"
       id="text2765"><tspan
         sodipodi:role="line"
         id="tspan2763"
         x="431.95477"
         y="362.21133"
         style="fill:#176abe;fill-opacity:1;stroke-width:20;stroke-dasharray:none">MYAUDIT</tspan></text>
  </g>
</svg>
